<?xml version="1.0" encoding="utf-8"?>
<!-- Generator: Adobe Illustrator 16.0.0, SVG Export Plug-In . SVG Version: 6.00 Build 0)  -->
<!DOCTYPE svg PUBLIC "-//W3C//DTD SVG 1.1//EN" "http://www.w3.org/Graphics/SVG/1.1/DTD/svg11.dtd">
<svg version="1.1" id="Layer_1" xmlns="http://www.w3.org/2000/svg" xmlns:xlink="http://www.w3.org/1999/xlink" x="0px" y="0px"
	 width="49.537px" height="49.537px" viewBox="0 0 49.537 49.537" enable-background="new 0 0 49.537 49.537" xml:space="preserve">
<g>
	<g>
		<path fill-rule="evenodd" clip-rule="evenodd" fill="#038D6B" d="M49.677,22.25c0,1.818,0,3.638,0,5.457
			c-0.298,0.584-0.255,1.241-0.394,1.859c-2.27,10.111-8.406,16.559-18.347,19.42c-1.151,0.332-2.354,0.386-3.509,0.69
			c-1.772,0-3.545,0-5.317,0c-0.324-0.274-0.741-0.2-1.108-0.254c-9.868-1.459-18.239-9.302-20.32-19.034
			c-0.181-0.847-0.197-1.73-0.542-2.541c0-1.96,0-3.919,0-5.878c0.313-0.556,0.284-1.193,0.394-1.79
			C2.278,10.627,9.971,2.715,19.498,0.672c0.823-0.176,1.685-0.19,2.472-0.532c1.913,0,3.825,0,5.737,0
			c1.119,0.235,2.258,0.399,3.353,0.717C40.626,3.628,46.682,9.82,49.12,19.501C49.348,20.406,49.493,21.333,49.677,22.25z
			 M40.339,8.634c0.067,0.051,0.135,0.103,0.202,0.154c0.097-0.132,0.028-0.204-0.09-0.261c-0.156-0.294-0.402-0.505-0.65-0.715
			C34.506,3.34,28.424,1.54,21.556,2.498c-4.726,0.66-8.778,2.74-12.256,6.028c0.669-0.149,1.34-0.196,2.015-0.196
			c9.064,0.001,18.128,0.001,27.192,0C39.135,8.33,39.757,8.357,40.339,8.634z M10.486,24.838c0,4.618,0.009,9.236-0.013,13.854
			c-0.003,0.523,0.127,0.653,0.651,0.652c9.189-0.018,18.378-0.018,27.567,0c0.523,0,0.652-0.128,0.651-0.652
			c-0.017-9.188-0.017-18.377,0-27.566c0.001-0.522-0.128-0.652-0.651-0.65c-9.188,0.017-18.378,0.017-27.567,0
			c-0.522-0.002-0.654,0.127-0.651,0.65C10.496,15.696,10.486,20.268,10.486,24.838z M40.987,9.171
			c0.565,0.672,0.458,1.459,0.459,2.216c0.005,6.552,0.004,13.104,0.002,19.656c0,2.728,0.003,5.455-0.016,8.184
			c-0.007,1.075-0.636,1.887-1.633,2.142c-0.311,0.079-0.647,0.074-0.972,0.075c-9.28,0.004-18.56,0.004-27.84,0.003
			c-0.187,0-0.374,0.001-0.56-0.016c-0.703-0.068-1.248-0.373-1.669-0.968c-0.474-0.667-0.421-1.41-0.422-2.144
			c-0.01-7.065-0.036-14.131,0.01-21.195c0.017-2.617-0.276-5.249,0.248-7.864c-5.477,5.31-8.321,14.882-4.816,23.891
			c3.557,9.142,12.771,15.043,22.518,14.399c10.005-0.659,18.322-7.637,20.673-17.372C49.034,21.628,45.648,13.26,40.987,9.171z"/>
		<path fill-rule="evenodd" clip-rule="evenodd" fill="#FDFEFD" d="M27.427,49.677c1.155-0.305,2.357-0.358,3.509-0.69
			c9.941-2.861,16.077-9.309,18.347-19.42c0.139-0.618,0.096-1.275,0.394-1.859c0,7.148-0.005,14.297,0.011,21.446
			c0,0.437-0.1,0.536-0.536,0.535C41.911,49.673,34.669,49.677,27.427,49.677z"/>
		<path fill-rule="evenodd" clip-rule="evenodd" fill="#FDFEFD" d="M49.677,22.25c-0.184-0.917-0.329-1.844-0.557-2.749
			C46.682,9.82,40.626,3.628,31.06,0.856c-1.095-0.317-2.234-0.481-3.353-0.717c7.137,0,14.273,0.006,21.41-0.014
			c0.479-0.001,0.575,0.095,0.574,0.573C49.671,7.883,49.677,15.066,49.677,22.25z"/>
		<path fill-rule="evenodd" clip-rule="evenodd" fill="#FDFEFD" d="M0.14,27.848c0.345,0.811,0.36,1.694,0.542,2.541
			c2.082,9.732,10.453,17.575,20.32,19.034c0.367,0.054,0.784-0.021,1.108,0.254c-7.149,0-14.297-0.004-21.446,0.012
			c-0.437,0.001-0.537-0.099-0.535-0.535C0.145,42.051,0.14,34.949,0.14,27.848z"/>
		<path fill-rule="evenodd" clip-rule="evenodd" fill="#FDFEFD" d="M21.97,0.14c-0.788,0.342-1.649,0.356-2.472,0.532
			C9.971,2.715,2.278,10.627,0.534,20.18c-0.109,0.597-0.081,1.234-0.394,1.79c0-7.102,0.004-14.204-0.011-21.306
			C0.127,0.228,0.227,0.128,0.664,0.129C7.766,0.145,14.868,0.14,21.97,0.14z"/>
		<path fill-rule="evenodd" clip-rule="evenodd" fill="#FEFEFE" d="M10.486,24.838c0-4.57,0.009-9.142-0.013-13.713
			c-0.003-0.523,0.129-0.652,0.651-0.65c9.189,0.017,18.378,0.017,27.567,0c0.523-0.002,0.652,0.128,0.651,0.65
			c-0.017,9.189-0.017,18.378,0,27.566c0.001,0.524-0.128,0.652-0.651,0.652c-9.189-0.018-18.378-0.018-27.567,0
			c-0.524,0.001-0.654-0.129-0.651-0.652C10.496,34.074,10.486,29.456,10.486,24.838z"/>
		<path fill-rule="evenodd" clip-rule="evenodd" fill="#FDFEFD" d="M40.987,9.171c4.661,4.089,8.047,12.457,5.982,21.007
			c-2.351,9.735-10.668,16.713-20.673,17.372C16.548,48.193,7.334,42.292,3.777,33.15C0.273,24.142,3.117,14.569,8.594,9.26
			c-0.524,2.615-0.231,5.247-0.248,7.864c-0.046,7.064-0.02,14.13-0.01,21.195c0.001,0.733-0.052,1.477,0.422,2.144
			c0.422,0.595,0.967,0.899,1.669,0.968c0.186,0.017,0.373,0.016,0.56,0.016c9.28,0.001,18.56,0.001,27.84-0.003
			c0.325-0.001,0.661,0.004,0.972-0.075c0.998-0.255,1.626-1.066,1.633-2.142c0.02-2.729,0.016-5.456,0.016-8.184
			c0.002-6.553,0.003-13.104-0.002-19.656C41.445,10.63,41.552,9.843,40.987,9.171z"/>
		<path fill-rule="evenodd" clip-rule="evenodd" fill="#FDFEFD" d="M40.339,8.634c-0.582-0.276-1.204-0.304-1.832-0.304
			c-9.064,0.001-18.128,0.001-27.192,0c-0.674,0-1.345,0.047-2.015,0.196c3.478-3.288,7.53-5.368,12.256-6.028
			C28.424,1.54,34.506,3.34,39.8,7.813c0.248,0.21,0.494,0.421,0.65,0.715C40.413,8.563,40.376,8.598,40.339,8.634z"/>
		<path fill-rule="evenodd" clip-rule="evenodd" fill="#FDFEFD" d="M40.451,8.527c0.119,0.057,0.188,0.129,0.09,0.261
			c-0.067-0.052-0.135-0.104-0.202-0.154C40.376,8.598,40.413,8.563,40.451,8.527z"/>
	</g>
</g>
</svg>
